<svg width="14" height="17" viewBox="0 0 14 17" fill="none" xmlns="http://www.w3.org/2000/svg">
<path d="M7.00001 0C3.50001 0 0.333008 2.683 0.333008 6.833C0.333008 9.483 2.37501 12.6 6.45001 16.191C6.604 16.3239 6.80061 16.397 7.00401 16.397C7.2074 16.397 7.40402 16.3239 7.55801 16.191C11.625 12.6 13.667 9.483 13.667 6.833C13.667 2.683 10.5 0 7.00001 0V0ZM7.00001 8.333C6.08301 8.333 5.33301 7.583 5.33301 6.666C5.33301 5.749 6.08301 4.999 7.00001 4.999C7.91701 4.999 8.66701 5.749 8.66701 6.666C8.66701 7.583 7.91701 8.333 7.00001 8.333Z" fill="#DD7230"/>
</svg>
