<svg width="18" height="14" viewBox="0 0 18 14" fill="none" xmlns="http://www.w3.org/2000/svg">
<path d="M15.667 0.666016H2.33299C1.41699 0.666016 0.674992 1.41602 0.674992 2.33302L0.666992 12.333C0.666992 13.25 1.41699 14 2.33299 14H15.667C16.583 14 17.333 13.25 17.333 12.333V2.33302C17.333 1.41602 16.583 0.666016 15.667 0.666016ZM15.333 4.20802L9.44199 7.89202C9.30909 7.97385 9.15607 8.01718 8.99999 8.01718C8.84391 8.01718 8.6909 7.97385 8.55799 7.89202L2.66699 4.20802C2.5846 4.16052 2.51261 4.09692 2.45534 4.02099C2.39807 3.94507 2.35668 3.85838 2.33364 3.76611C2.3106 3.67384 2.30639 3.57787 2.32126 3.48394C2.33613 3.39 2.36977 3.30003 2.42017 3.21938C2.47058 3.13873 2.53671 3.06906 2.61464 3.01454C2.69256 2.96001 2.78066 2.92174 2.8737 2.90202C2.96673 2.88229 3.06279 2.88151 3.15613 2.89972C3.24948 2.91793 3.3382 2.95476 3.41699 3.00802L8.99999 6.50002L14.583 3.00802C14.6618 2.95476 14.7505 2.91793 14.8439 2.89972C14.9372 2.88151 15.0333 2.88229 15.1263 2.90202C15.2193 2.92174 15.3074 2.96001 15.3853 3.01454C15.4633 3.06906 15.5294 3.13873 15.5798 3.21938C15.6302 3.30003 15.6639 3.39 15.6787 3.48394C15.6936 3.57787 15.6894 3.67384 15.6663 3.76611C15.6433 3.85838 15.6019 3.94507 15.5446 4.02099C15.4874 4.09692 15.4154 4.16052 15.333 4.20802V4.20802Z" fill="#DD7230"/>
</svg>
