<svg width="32" height="33" viewBox="0 0 32 33" fill="none" xmlns="http://www.w3.org/2000/svg">
<path d="M16 0.333008C11.6533 0.333008 11.1107 0.353008 9.404 0.429008C7.7 0.509008 6.54 0.777008 5.52 1.17301C4.468 1.58101 3.57467 2.12901 2.68533 3.01834C1.796 3.90768 1.24667 4.79968 0.84 5.85301C0.444 6.87301 0.174667 8.03301 0.096 9.73701C0.016 11.4437 0 11.9863 0 16.333C0 20.6797 0.02 21.2223 0.096 22.929C0.176 24.6317 0.444 25.793 0.84 26.813C1.248 27.8637 1.796 28.7583 2.68533 29.6477C3.57467 30.5357 4.46667 31.0863 5.52 31.493C6.54133 31.8877 7.70133 32.1583 9.404 32.237C11.1107 32.317 11.6533 32.333 16 32.333C20.3467 32.333 20.8893 32.313 22.596 32.237C24.2987 32.157 25.46 31.8877 26.48 31.493C27.5307 31.085 28.4253 30.5357 29.3147 29.6477C30.2027 28.7583 30.7533 27.8677 31.16 26.813C31.5547 25.793 31.8253 24.6317 31.904 22.929C31.984 21.2223 32 20.6797 32 16.333C32 11.9863 31.98 11.4437 31.904 9.73701C31.824 8.03434 31.5547 6.87168 31.16 5.85301C30.752 4.80101 30.2027 3.90768 29.3147 3.01834C28.4253 2.12901 27.5347 1.57968 26.48 1.17301C25.46 0.777008 24.2987 0.507675 22.596 0.429008C20.8893 0.349008 20.3467 0.333008 16 0.333008ZM16 3.21301C20.2707 3.21301 20.78 3.23434 22.4667 3.30768C24.0267 3.38101 24.8733 3.63968 25.436 3.86101C26.1853 4.15034 26.716 4.49701 27.2787 5.05568C27.8373 5.61568 28.184 6.14768 28.4733 6.89701C28.692 7.45968 28.9533 8.30634 29.024 9.86634C29.1 11.5543 29.1173 12.061 29.1173 16.333C29.1173 20.605 29.0973 21.113 29.0187 22.7997C28.9373 24.3597 28.6773 25.2063 28.4573 25.769C28.1587 26.5183 27.8187 27.049 27.2587 27.6117C26.7 28.1703 26.16 28.517 25.4187 28.8063C24.8587 29.025 23.9987 29.2863 22.4387 29.357C20.74 29.433 20.24 29.4503 15.96 29.4503C11.6787 29.4503 11.1787 29.4303 9.48133 29.3517C7.92 29.2703 7.06 29.0103 6.5 28.7903C5.74133 28.4917 5.22 28.1517 4.66133 27.5917C4.1 27.033 3.74133 26.493 3.46133 25.7517C3.24133 25.1917 2.98267 24.3317 2.90133 22.7717C2.84133 21.0917 2.82 20.573 2.82 16.313C2.82 12.0517 2.84133 11.5317 2.90133 9.83168C2.98267 8.27168 3.24133 7.41301 3.46133 6.85301C3.74133 6.09301 4.1 5.57301 4.66133 5.01168C5.22 4.45301 5.74133 4.09301 6.5 3.81434C7.06 3.59301 7.90133 3.33301 9.46133 3.25301C11.1613 3.19301 11.6613 3.17301 15.94 3.17301L16 3.21301ZM16 8.11701C11.46 8.11701 7.784 11.797 7.784 16.333C7.784 20.873 11.464 24.549 16 24.549C20.54 24.549 24.216 20.869 24.216 16.333C24.216 11.793 20.536 8.11701 16 8.11701ZM16 21.6663C13.0533 21.6663 10.6667 19.2797 10.6667 16.333C10.6667 13.3863 13.0533 10.9997 16 10.9997C18.9467 10.9997 21.3333 13.3863 21.3333 16.333C21.3333 19.2797 18.9467 21.6663 16 21.6663ZM26.4613 7.79301C26.4613 8.85301 25.6 9.71301 24.5413 9.71301C23.4813 9.71301 22.6213 8.85168 22.6213 7.79301C22.6213 6.73434 23.4827 5.87434 24.5413 5.87434C25.5987 5.87301 26.4613 6.73434 26.4613 7.79301Z" fill="#DD7230"/>
</svg>
