<svg width="16" height="16" viewBox="0 0 16 16" fill="none" xmlns="http://www.w3.org/2000/svg">
<path d="M14.025 11.0501L11.908 10.8081C11.6592 10.7789 11.4071 10.8065 11.1705 10.8888C10.9339 10.971 10.719 11.1058 10.542 11.2831L9.008 12.8161C6.6427 11.6129 4.72012 9.69037 3.517 7.32507L5.058 5.78307C5.417 5.42507 5.592 4.92507 5.533 4.41607L5.292 2.31607C5.24464 1.90947 5.04942 1.5345 4.7435 1.26251C4.43759 0.990525 4.04234 0.840525 3.633 0.841066H2.192C1.25 0.841066 0.467001 1.62507 0.525001 2.56607C0.967001 9.68307 6.658 15.3661 13.767 15.8081C14.708 15.8661 15.492 15.0831 15.492 14.1411V12.7001C15.4941 12.2925 15.3454 11.8986 15.0746 11.594C14.8038 11.2894 14.43 11.0957 14.025 11.0501V11.0501Z" fill="#DD7230"/>
</svg>
