<svg width="33" height="33" viewBox="0 0 33 33" fill="none" xmlns="http://www.w3.org/2000/svg">
<path d="M16.5999 0.599976C7.7777 0.599976 0.599987 7.77769 0.599987 16.5999C0.599987 19.3547 1.31164 22.0636 2.6612 24.4538L0.625726 31.7164C0.558944 31.955 0.623639 32.211 0.796161 32.3884C0.92903 32.5254 1.1099 32.5999 1.29564 32.5999C1.35129 32.5999 1.40764 32.5929 1.46259 32.5797L9.04239 30.7021C11.3568 31.9446 13.9634 32.5999 16.5999 32.5999C25.4222 32.5999 32.5999 25.4222 32.5999 16.5999C32.5999 7.77769 25.4222 0.599976 16.5999 0.599976ZM24.6486 22.2458C24.3063 23.1933 22.6646 24.058 21.8757 24.1742C21.1676 24.2778 20.2716 24.3223 19.2879 24.0135C18.6918 23.8256 17.9265 23.5766 16.9464 23.1585C12.826 21.4013 10.1353 17.3046 9.92935 17.034C9.72413 16.7634 8.25214 14.8351 8.25214 12.8392C8.25214 10.8434 9.313 9.86186 9.69005 9.4556C10.0671 9.04934 10.5116 8.94777 10.7857 8.94777C11.0598 8.94777 11.3332 8.95125 11.5732 8.96238C11.8257 8.9749 12.1645 8.86708 12.4977 9.65873C12.8399 10.4712 13.6615 12.4671 13.7631 12.6709C13.866 12.874 13.9342 13.1112 13.7979 13.3818C13.6615 13.6525 13.5933 13.8215 13.3874 14.0587C13.1815 14.2959 12.9561 14.5874 12.7711 14.7697C12.5652 14.9721 12.3516 15.1912 12.5909 15.5975C12.8302 16.0038 13.6546 17.3317 14.8761 18.4072C16.4448 19.7888 17.7686 20.2173 18.1791 20.4204C18.5895 20.6236 18.8295 20.5895 19.0688 20.3189C19.3081 20.0476 20.0956 19.1342 20.369 18.7286C20.6424 18.323 20.9164 18.3898 21.2935 18.5255C21.6705 18.6604 23.69 19.6413 24.1004 19.8444C24.5109 20.0476 24.785 20.1491 24.8879 20.3182C24.9909 20.4865 24.9909 21.299 24.6486 22.2458Z" fill="#DD7230"/>
</svg>
